<?xml version="1.0" encoding="UTF-8"?>
<svg version="1.1" xmlns="http://www.w3.org/2000/svg" width="652" height="484">
<path d="M0 0 C0.97839844 0.55429687 1.95679688 1.10859375 2.96484375 1.6796875 C28.54082638 17.0179382 47.84640216 43.398206 56 72 C64.1255674 105.9703343 59.78325324 137.93339976 42.1640625 168.1484375 C23.1982721 197.99755066 -4.85801933 216.52263723 -38.875 224.75 C-43.92459069 225.83336673 -48.84097612 226.7288921 -54 227 C-55.11246094 227.06445312 -56.22492188 227.12890625 -57.37109375 227.1953125 C-86.77510465 228.0836512 -115.71153405 216.89749972 -138 198 C-138.52223145 197.5575293 -139.04446289 197.11505859 -139.58251953 196.65917969 C-164.31583773 175.42419836 -178.92915718 146.29772405 -182 114 C-184.09497935 83.19306008 -174.72560276 50.97232819 -154.59472656 27.35107422 C-151.49349955 23.80424429 -148.26982813 20.39130782 -145 17 C-144.37351563 16.32195313 -143.74703125 15.64390625 -143.1015625 14.9453125 C-107.87849808 -22.26214992 -42.41409276 -24.60885928 0 0 Z M-90.97265625 11.03515625 C-98.29639908 19.85163648 -100.71377839 27.98863688 -100.390625 39.4375 C-99.86108068 44.26694421 -98.52156462 47.884044 -96 52 C-95.360625 53.0725 -94.72125 54.145 -94.0625 55.25 C-87.85115832 63.53178891 -79.45809221 70.44112374 -69 72 C-55.994055 72.77292473 -45.30780558 71.54340642 -35 63 C-28.15018093 56.43001368 -22.53759942 49.05082316 -21.796875 39.3359375 C-21.61049053 27.56265159 -24.23257066 19.01520915 -32 10 C-40.53762086 1.74578564 -51.48050617 -1.29159383 -63.07666016 -1.31689453 C-73.70830341 -1.10963506 -83.57109165 3.39908663 -90.97265625 11.03515625 Z M-157 79 C-157 79.99 -157 80.98 -157 82 C-157.99 82.33 -158.98 82.66 -160 83 C-165.47575242 92.13884197 -166.34167794 102.2560316 -163.875 112.5 C-160.78291355 122.68231257 -155.11348159 131.09829103 -145.6640625 136.28125 C-135.83023931 140.85512125 -124.50288006 141.86811326 -114.125 138.375 C-104.02316565 134.13015892 -95.02021179 126.26347807 -90.5625 116.125 C-87.07344249 106.12303515 -87.34114462 96.65295413 -91.625 87 C-94.23907943 82.10723246 -97.85443348 77.67738139 -102 74 C-102.99 74 -103.98 74 -105 74 C-105 73.34 -105 72.68 -105 72 C-105.99 72 -106.98 72 -108 72 C-108 71.34 -108 70.68 -108 70 C-124.71062301 61.91537893 -144.63531397 64.44218923 -157 79 Z M-13 70 C-14.18335938 70.67095703 -14.18335938 70.67095703 -15.390625 71.35546875 C-25.58192276 77.64910131 -30.75795647 85.93554181 -33.63671875 97.57421875 C-34.91452509 106.10666753 -32.85173113 114.5582965 -28.25 121.8125 C-27.19890122 123.23276518 -26.11598989 124.63013564 -25 126 C-24.49726563 126.62648437 -23.99453125 127.25296875 -23.4765625 127.8984375 C-17.26600488 134.8360848 -8.00589124 139.5643765 1.28515625 140.23828125 C14.69441051 140.5017516 24.05770233 137.40521606 33.90625 128.22265625 C41.48721129 120.36865186 43.59413432 111.56749166 43.47729492 100.85595703 C43.00893145 89.83424321 37.71438798 81.16058405 29.92578125 73.60546875 C26.90070735 71.08355116 23.64913326 69.43919088 20 68 C19.09894531 67.64292969 18.19789063 67.28585938 17.26953125 66.91796875 C7.43216968 64.15598551 -4.11364775 64.91083018 -13 70 Z M-73.8125 94.6875 C-76.38532996 98.58349966 -77.3053073 101.3575331 -77 106 C-75.43102116 111.22992948 -73.53499619 113.97666921 -69 117 C-65.04687837 118.97656081 -60.30778842 118.43374973 -56 118 C-51.72884086 116.52004719 -48.094987 114.07358584 -46 110 C-44.71303196 104.7531303 -44.83229535 100.96765648 -47 96 C-51.13182349 91.48240429 -54.58007442 89.15868364 -60.8125 88.75 C-66.44745645 88.85320433 -69.75130653 90.80680401 -73.8125 94.6875 Z M-87 143 C-87.5259375 143.45890625 -88.051875 143.9178125 -88.59375 144.390625 C-90.1660288 145.79180631 -90.1660288 145.79180631 -92 148 C-92 148.99 -92 149.98 -92 151 C-92.99 151.33 -93.98 151.66 -95 152 C-96.20828966 153.95324533 -96.20828966 153.95324533 -97.125 156.3125 C-97.45757812 157.09238281 -97.79015625 157.87226563 -98.1328125 158.67578125 C-101.0828234 166.58234199 -101.3098129 175.52998351 -98.25 183.4375 C-93.43961853 193.77399444 -85.79373093 201.89016257 -75 206 C-62.85749748 210.04750084 -50.80556976 208.39610387 -39.42578125 202.71484375 C-31.11643729 197.65023512 -25.64070583 190.24504186 -22.66015625 181.01953125 C-20.25681539 170.02673549 -21.71092426 159.86252118 -27.66015625 150.34375 C-34.73294412 140.70035956 -44.21094477 134.92755356 -56 133 C-67.38920814 131.55145206 -78.58079068 135.29562921 -87 143 Z " fill="#FAFBFB" transform="translate(390,46)"/>
<path d="M0 0 C1.73838314 1.48930904 3.46788304 2.98906159 5.1875 4.5 C6.01636719 5.19609375 6.84523438 5.8921875 7.69921875 6.609375 C37.39825437 32.15893782 54.49185718 70.18489673 57.66015625 108.82421875 C58.86069615 126.46544231 57.75044091 143.61963888 52.1875 160.5 C51.82978516 161.60359863 51.82978516 161.60359863 51.46484375 162.72949219 C42.81676317 188.94534451 24.59807812 220.18345992 -0.8125 233.5 C-1.4725 233.5 -2.1325 233.5 -2.8125 233.5 C-2.89422652 231.77163534 -2.95201818 230.04213041 -3 228.3125 C-3.03480469 227.34957031 -3.06960938 226.38664062 -3.10546875 225.39453125 C-2.51952631 219.60541995 1.21301122 216.27113385 5.125 212.25 C30.77748762 184.86633642 42.4280266 149.24176213 41.31933594 112.06640625 C40.05118212 87.37967855 30.82342049 62.3107638 16.1875 42.5 C15.77628906 41.9421582 15.36507813 41.38431641 14.94140625 40.80957031 C-7.30422989 10.89017987 -37.66172496 -6.29631083 -74.37109375 -12.05859375 C-90.6540468 -13.98918697 -107.89171614 -13.47615516 -123.8125 -9.5 C-124.47652832 -9.3443457 -125.14055664 -9.18869141 -125.82470703 -9.02832031 C-157.95777889 -1.37504292 -185.79302715 18.68566999 -203.4375 46.578125 C-222.18748976 77.15270508 -229.52871244 113.30683747 -221.77734375 148.55859375 C-215.58777763 174.13100447 -203.57672026 197.05664088 -185.0625 215.78125 C-181.57491791 219.99541169 -180.52365368 223.96807145 -180.6875 229.375 C-180.70554688 230.15617187 -180.72359375 230.93734375 -180.7421875 231.7421875 C-180.76539063 232.32226562 -180.78859375 232.90234375 -180.8125 233.5 C-185.29570141 232.04150934 -188.49516609 229.551415 -192 226.5 C-192.57024902 226.00725586 -193.14049805 225.51451172 -193.72802734 225.00683594 C-220.00893227 202.07264574 -238.22531958 169.78658015 -240.8125 134.5 C-242.68715675 88.66594681 -231.20207294 48.34187559 -199.75390625 14.125 C-149.14628686 -39.24289282 -57.70175647 -46.35454913 0 0 Z " fill="#F6F6F7" transform="translate(420.8125,30.5)"/>
<path d="M0 0 C3.1875 2.25 3.1875 2.25 5 4 C6.0209375 3.1028125 6.0209375 3.1028125 7.0625 2.1875 C13.76633248 -2.80471567 20.76039778 -4.54030178 29 -4 C38.50499136 -1.94812885 45.33409709 2.02079945 51 10 C54.3270759 16.53942504 55.1243934 22.45631333 55.12939453 29.72387695 C55.13254669 31.0415657 55.13569885 32.35925446 55.13894653 33.71687317 C55.13715742 35.14067621 55.13510663 36.56447894 55.1328125 37.98828125 C55.13348657 39.45704667 55.13445746 40.92581199 55.13571167 42.39457703 C55.13718145 45.46171132 55.13505571 48.52881638 55.13037109 51.59594727 C55.12464898 55.53490404 55.12797295 59.47379304 55.13394356 63.41274738 C55.13754717 66.44008399 55.13641195 69.46740436 55.13381577 72.49474144 C55.13314724 73.94807124 55.13397233 75.40140251 55.13629532 76.85473061 C55.13882123 78.8775187 55.13429199 80.90031196 55.12939453 82.9230957 C55.12859894 84.07526077 55.12780334 85.22742584 55.12698364 86.414505 C55 89 55 89 54 90 C52.43827255 90.08685603 50.87270656 90.10702219 49.30859375 90.09765625 C48.36435547 90.09443359 47.42011719 90.09121094 46.44726562 90.08789062 C45.45404297 90.07951172 44.46082031 90.07113281 43.4375 90.0625 C42.44041016 90.05798828 41.44332031 90.05347656 40.41601562 90.04882812 C37.94395151 90.03700007 35.47200482 90.02051849 33 90 C33.00666183 89.16141449 33.01332367 88.32282898 33.02018738 87.45883179 C33.08037928 79.54344627 33.12601542 71.62813798 33.15543652 63.71257591 C33.17107087 59.64340805 33.19226809 55.57442983 33.22631836 51.50537109 C33.25899183 47.57610849 33.27686979 43.64702793 33.28463173 39.71763992 C33.29016095 38.22096518 33.30095824 36.72430003 33.31719017 35.22770309 C33.33907143 33.12603223 33.34196258 31.02510688 33.34057617 28.92333984 C33.34723801 27.72865082 33.35389984 26.53396179 33.36076355 25.30307007 C32.95542028 21.59183807 31.93137254 19.17677045 30 16 C27.38634854 14.72598161 24.87664246 14.7471701 22 15 C18.37909244 16.57430764 17.20744716 17.68882926 15 21 C14.66969338 24.09450608 14.66969338 24.09450608 14.68115234 27.67456055 C14.66608391 28.68471222 14.66608391 28.68471222 14.65071106 29.715271 C14.61984396 31.93907831 14.60283449 34.16276504 14.5859375 36.38671875 C14.56722865 37.92943868 14.54765544 39.47214835 14.5272522 41.0148468 C14.47589494 45.07376052 14.43628857 49.13270742 14.39910889 53.19177246 C14.35909169 57.33431228 14.30798895 61.47671361 14.2578125 65.61914062 C14.16101061 73.74600621 14.07764416 81.87292878 14 90 C7.07 90 0.14 90 -7 90 C-7.01458252 87.86490967 -7.02916504 85.72981934 -7.04418945 83.5300293 C-7.09449318 76.48110137 -7.16108054 69.43239534 -7.23571491 62.38368511 C-7.28047088 58.1094062 -7.31971524 53.83522375 -7.34643555 49.56079102 C-7.37241673 45.43684578 -7.41278169 41.31327074 -7.46318626 37.18955421 C-7.47989023 35.61511649 -7.4913825 34.04061469 -7.49761391 32.46610069 C-7.50721706 30.26305572 -7.53522844 28.06096538 -7.56762695 25.8581543 C-7.58428154 23.97618599 -7.58428154 23.97618599 -7.60127258 22.05619812 C-7.74939635 19.02759886 -7.74939635 19.02759886 -9.37858582 17.0962677 C-11.63686771 15.56940212 -13.29466454 15.60084522 -16 15.625 C-16.86625 15.61726563 -17.7325 15.60953125 -18.625 15.6015625 C-21.57001634 16.09562774 -22.25547436 16.59092995 -24 19 C-24.4761607 22.17089421 -24.4761607 22.17089421 -24.43237305 25.8581543 C-24.4425647 26.55109589 -24.45275635 27.24403748 -24.46325684 27.95797729 C-24.49343443 30.24680618 -24.50265963 32.5352169 -24.51171875 34.82421875 C-24.52856198 36.4117828 -24.54671174 37.99933348 -24.56611633 39.58686829 C-24.61366144 43.76416854 -24.64344142 47.94141461 -24.66955566 52.11889648 C-24.69933858 56.38210757 -24.74587664 60.64513187 -24.79101562 64.90820312 C-24.87710015 73.27205932 -24.94287375 81.63589583 -25 90 C-31.93 90 -38.86 90 -46 90 C-47.125 81 -47.125 81 -47.08229065 77.88696289 C-47.07525116 77.17759079 -47.06821167 76.46821869 -47.06095886 75.73735046 C-47.04801285 74.99000137 -47.03506683 74.24265228 -47.02172852 73.47265625 C-47.01212097 72.66194168 -47.00251343 71.85122711 -46.99261475 71.01594543 C-46.95991472 68.36470033 -46.91947427 65.71363536 -46.87890625 63.0625 C-46.8545767 61.21305964 -46.83073461 59.36361281 -46.80735779 57.51416016 C-46.74479874 52.66771014 -46.67565362 47.821376 -46.60510254 42.97503662 C-46.53416317 38.02117143 -46.46949989 33.06722467 -46.40429688 28.11328125 C-46.27564825 18.4087645 -46.14003659 8.70435864 -46 -1 C-44.84387207 -1.05986084 -43.68774414 -1.11972168 -42.49658203 -1.18139648 C-40.95864853 -1.2652731 -39.42072591 -1.34934944 -37.8828125 -1.43359375 C-37.12331299 -1.47238647 -36.36381348 -1.5111792 -35.58129883 -1.55114746 C-31.271077 -1.79163693 -27.11961978 -2.22335699 -22.875 -3.0625 C-14.23248559 -4.76245404 -7.99724986 -3.64743599 0 0 Z M-32 88 C-28 89 -28 89 -28 89 Z " fill="#F7F7F7" transform="translate(332,353)"/>
<path d="M0 0 C2.15032998 2.15032998 1.16822674 7.13517719 1.17700195 10.11865234 C1.18357315 11.07648621 1.19014435 12.03432007 1.19691467 13.0211792 C1.21671452 16.20943269 1.22832986 19.39763876 1.23828125 22.5859375 C1.24235678 23.674547 1.2464323 24.76315651 1.25063133 25.88475418 C1.27152825 31.65510114 1.28580986 37.42542412 1.29516602 43.19580078 C1.30619132 49.14177903 1.34053601 55.08737897 1.38033772 61.03322411 C1.40657132 65.61451889 1.41486423 70.19572489 1.41844749 74.77708817 C1.42330211 76.96739865 1.43488379 79.15770548 1.45348549 81.34794235 C1.57641348 96.79173414 1.25797845 109.26051941 -10 121 C-18.93460636 129.0214502 -29.27197789 133.40773577 -41.3125 133.3125 C-42.06160645 133.30686035 -42.81071289 133.3012207 -43.58251953 133.29541016 C-56.20847588 133.01956729 -67.22344789 128.06095163 -76.1875 119.125 C-77.47150441 117.76229129 -78.7474732 116.39169644 -80 115 C-78.64001616 111.4163459 -77.0792517 108.08427477 -75.1875 104.75 C-74.70667969 103.87859375 -74.22585938 103.0071875 -73.73046875 102.109375 C-72 100 -72 100 -69.5 99.0078125 C-67 99 -67 99 -65.33203125 100.2578125 C-64.83058594 100.87398438 -64.32914062 101.49015625 -63.8125 102.125 C-58.15232936 108.33132745 -50.63972215 111.68544257 -42.3125 112.25 C-36.07842258 112.14532333 -30.82425903 110.55256088 -26.0625 106.5 C-23.09813938 102.90683561 -21.70063756 100.35350659 -20.875 95.8125 C-20.62363281 94.46091797 -20.62363281 94.46091797 -20.3671875 93.08203125 C-20.18542969 92.05142578 -20.18542969 92.05142578 -20 91 C-20.54398438 91.15984375 -21.08796875 91.3196875 -21.6484375 91.484375 C-33.11169557 93.99791331 -43.92624963 90.96321452 -53.61328125 84.7890625 C-63.13309487 77.65309747 -68.99807491 67.71084027 -70.71875 55.98046875 C-72.12270166 41.10248107 -70.53701074 26.33813463 -60.875 14.3671875 C-44.50175816 -3.21305614 -22.2496666 -2.78550695 0 0 Z M-42.89453125 24.125 C-49.7273817 33.96696464 -50.22827021 44.36605024 -49 56 C-47.27427862 62.68616703 -43.76741371 67.09218719 -38.0390625 70.87890625 C-33.54032056 73.35235249 -29.82210789 74.24858345 -24.78125 73.53515625 C-23.5334375 73.35855469 -22.285625 73.18195313 -21 73 C-20.97473437 65.18547248 -20.95716895 57.37095542 -20.94506836 49.55639648 C-20.94002617 46.89558519 -20.93319264 44.23477668 -20.92456055 41.57397461 C-20.91248991 37.75894484 -20.90677071 33.94395156 -20.90234375 30.12890625 C-20.89718246 28.93100967 -20.89202118 27.7331131 -20.88670349 26.49891663 C-20.88662796 25.3978508 -20.88655243 24.29678497 -20.88647461 23.16235352 C-20.88314369 21.7000808 -20.88314369 21.7000808 -20.87974548 20.20826721 C-20.75218415 18.02527884 -20.75218415 18.02527884 -22 17 C-30.16046079 16.22281326 -37.24249023 17.78539111 -42.89453125 24.125 Z " fill="#F8F8F8" transform="translate(542,351)"/>
<path d="M0 0 C6.57225009 6.67316756 9.80083209 14.22219096 11.6875 23.3125 C10.57920881 27.64491102 7.67581817 29.65329122 4 32 C-0.02482928 33.9937466 -3.45010928 35 -8 35 C-8.14695312 34.16597656 -8.29390625 33.33195312 -8.4453125 32.47265625 C-10.05548029 24.39405579 -11.89770672 16.52933196 -19.02734375 11.59765625 C-26.2955297 7.79437831 -33.63188414 6.82430939 -41.5625 9.125 C-47.92701632 11.48426036 -52.27125679 15.13575697 -55.375 21.1875 C-57.31636821 25.46695079 -58.13191349 28.97634952 -58.17700195 33.68969727 C-58.18983719 34.85843887 -58.20267242 36.02718048 -58.21589661 37.2313385 C-58.22328354 38.49691086 -58.23067047 39.76248322 -58.23828125 41.06640625 C-58.246353 42.37020737 -58.25442474 43.67400848 -58.26274109 45.01731873 C-58.27776138 47.78213368 -58.2876002 50.54692304 -58.29516602 53.31176758 C-58.3061798 56.82981292 -58.34052234 60.34721688 -58.38033772 63.86503696 C-58.4130075 67.24463238 -58.41730128 70.62416527 -58.42578125 74.00390625 C-58.44328934 75.25530899 -58.46079742 76.50671173 -58.47883606 77.79603577 C-58.45910987 85.82527271 -57.85008563 93.62738297 -52.32368469 99.90382385 C-45.42762601 106.36783782 -38.78524654 107.63115061 -29.51953125 107.4140625 C-23.00313607 106.64742777 -17.97484593 104.48845055 -13.8671875 99.3125 C-11.78185353 95.61299539 -10.71973636 92.22650789 -9.75 88.125 C-9.57726562 87.43664062 -9.40453125 86.74828125 -9.2265625 86.0390625 C-8.80728358 84.36194682 -8.40214456 82.68130651 -8 81 C0.13249934 82.96754016 5.3607011 86.82362502 11 93 C12 96 12 96 10.91796875 98.78515625 C4.52601184 110.89091662 -4.06729197 120.63434908 -17.0625 125.75 C-31.05843186 129.97291047 -45.31449247 128.5022571 -58.12548828 121.80175781 C-70.1650277 115.17950484 -76.63456189 105.21068928 -80.55924988 92.1370697 C-81.10858349 89.47351009 -81.15069124 86.96467022 -81.17700195 84.24438477 C-81.18983719 83.08540176 -81.20267242 81.92641876 -81.21589661 80.73231506 C-81.22328354 79.48131516 -81.23067047 78.23031525 -81.23828125 76.94140625 C-81.246353 75.6461351 -81.25442474 74.35086395 -81.26274109 73.01634216 C-81.27775056 70.2700921 -81.28759352 67.52386766 -81.29516602 64.77758789 C-81.30615713 61.29461356 -81.3404768 57.81229109 -81.38033772 54.32954502 C-81.41312397 50.97102814 -81.4173114 47.61257055 -81.42578125 44.25390625 C-81.44328934 43.02112442 -81.46079742 41.78834259 -81.47883606 40.51820374 C-81.44145636 25.34751499 -76.56883065 12.18728239 -66.2265625 1.0703125 C-48.02633861 -15.8527027 -18.62869495 -16.30414376 0 0 Z " fill="#F8F8F8" transform="translate(81,317)"/>
<path d="M0 0 C2.94869344 2.10329946 5.49070055 4.3935295 8 7 C8.49371094 7.4846875 8.98742187 7.969375 9.49609375 8.46875 C15.18751779 14.54860951 17.09169912 23.6275681 17.15771484 31.75512695 C17.16797699 32.66990311 17.17823914 33.58467926 17.18881226 34.5271759 C17.19611359 35.50434067 17.20341492 36.48150543 17.2109375 37.48828125 C17.23900684 39.57748178 17.26767131 41.66667439 17.296875 43.75585938 C17.33808908 47.03409597 17.37499746 50.31218465 17.40136719 53.59057617 C17.42908618 56.765118 17.47495506 59.93899745 17.5234375 63.11328125 C17.52669037 64.08437332 17.52994324 65.05546539 17.53329468 66.0559845 C17.65585763 72.8936935 18.27979746 79.12435732 23.1875 84.3125 C23.785625 84.869375 24.38375 85.42625 25 86 C25 86.99 25 87.98 25 89 C21.43793278 89.14567407 17.87663449 89.23419196 14.3125 89.3125 C13.30509766 89.35439453 12.29769531 89.39628906 11.25976562 89.43945312 C3.72564642 89.56377852 3.72564642 89.56377852 -0.08203125 86.60546875 C-0.71496094 85.74566406 -1.34789062 84.88585937 -2 84 C-2.99 83.01 -2.99 83.01 -4 82 C-4.92232422 82.63228516 -4.92232422 82.63228516 -5.86328125 83.27734375 C-6.67152344 83.82519531 -7.47976563 84.37304688 -8.3125 84.9375 C-9.51326172 85.75541016 -9.51326172 85.75541016 -10.73828125 86.58984375 C-15.84864516 89.77609828 -21.16603069 89.54287264 -27 89 C-36.14959791 86.68280805 -42.32799248 81.97765773 -47.3125 74.0625 C-52.12362734 65.42813014 -53.50628883 56.78280957 -51.34765625 47.0625 C-48.80439284 39.2034886 -44.58749081 32.82304309 -37.375 28.5625 C-29.29438508 25.05463616 -20.30052788 25.1999763 -12.1015625 28.09765625 C-9.57324121 29.18323658 -7.25521765 30.42134765 -5 32 C-5.40069421 26.18993391 -6.07244494 22.56445589 -10 18 C-14.40217021 14.77889984 -18.73501293 14.38062104 -24.05078125 14.50390625 C-28.42305315 15.2393745 -31.75223695 17.18123298 -35.4921875 19.4921875 C-37.93606222 20.96155766 -40.32972172 22.01419834 -43 23 C-44.17666004 20.75474054 -45.3414074 18.50455858 -46.5 16.25 C-46.83386719 15.61578125 -47.16773438 14.9815625 -47.51171875 14.328125 C-49.27175533 10.87989007 -50 8.95159931 -50 5 C-38.58129628 -6.55304141 -13.58206875 -7.89009445 0 0 Z M-29.875 47.5 C-32.53685706 51.04914275 -32.21579212 54.75608823 -32 59 C-31.0804117 62.48129855 -30.54972745 64.45027255 -28 67 C-23.53191268 69.43713854 -18.96637535 69.70463103 -14 69 C-10.00293532 67.46615477 -7.40876566 65.61314849 -5 62 C-4.39802223 58.26079196 -4.38607008 54.73839471 -5 51 C-8.86087429 46.36695085 -13.32246196 44.79788705 -19 43 C-22.97399032 43 -26.8175174 45.05401392 -29.875 47.5 Z " fill="#F9F9F9" transform="translate(447,354)"/>
<path d="M0 0 C8.71584501 5.26890065 13.32785188 12.47298564 16.07421875 22.25390625 C17.03203147 31.32792153 16.92576039 39.85910089 11.07421875 47.25390625 C7.76691953 50.83362104 4.89921009 53.5743433 -0.11694336 53.93505859 C-1.64599971 53.93412248 -3.17529327 53.90103542 -4.703125 53.83984375 C-5.92014854 53.82710922 -5.92014854 53.82710922 -7.16175842 53.81411743 C-9.73033584 53.78076994 -12.29566777 53.70553704 -14.86328125 53.62890625 C-16.61388665 53.59878204 -18.36454172 53.57141054 -20.11523438 53.546875 C-24.38664996 53.48104136 -28.65566718 53.37765928 -32.92578125 53.25390625 C-32.30296569 54.69552169 -31.6758247 56.13526893 -31.046875 57.57421875 C-30.69810303 58.37617676 -30.34933105 59.17813477 -29.98999023 60.00439453 C-27.65496607 64.94013957 -24.74764774 67.80199397 -19.92578125 70.25390625 C-13.04876216 71.41660017 -7.31734629 70.99065627 -1.36328125 67.25390625 C-0.59886719 66.69703125 0.16554688 66.14015625 0.953125 65.56640625 C3.07421875 64.25390625 3.07421875 64.25390625 7.07421875 64.25390625 C9.43359375 66.44140625 9.43359375 66.44140625 11.82421875 69.25390625 C12.6234375 70.18203125 13.42265625 71.11015625 14.24609375 72.06640625 C14.849375 72.78828125 15.45265625 73.51015625 16.07421875 74.25390625 C13.25693299 80.82757303 6.96737882 85.68183551 0.63671875 88.75390625 C-8.10856365 91.81954515 -19.79478086 91.86686101 -28.48828125 88.62890625 C-29.99142928 87.88377798 -31.47253979 87.09221371 -32.92578125 86.25390625 C-33.69019531 85.85300781 -34.45460937 85.45210938 -35.2421875 85.0390625 C-44.71032061 79.51197972 -49.88313903 70.82998223 -53.12963867 60.59423828 C-54.50619514 54.81869531 -54.50321363 49.16457803 -54.42578125 43.25390625 C-54.44898438 41.48273438 -54.44898438 41.48273438 -54.47265625 39.67578125 C-54.42746647 29.41770226 -52.52613577 19.39434349 -45.92578125 11.25390625 C-45.26578125 10.92390625 -44.60578125 10.59390625 -43.92578125 10.25390625 C-43.6628125 9.64804687 -43.39984375 9.0421875 -43.12890625 8.41796875 C-41.5008285 5.48954318 -39.50855893 4.3858476 -36.67578125 2.62890625 C-35.7425 2.03851563 -34.80921875 1.448125 -33.84765625 0.83984375 C-24.03962547 -4.48376654 -10.1437382 -4.94270435 0 0 Z M-25.92578125 17.25390625 C-29.48292494 20.71491092 -31.31517506 24.5831483 -32.92578125 29.25390625 C-32.92578125 31.56390625 -32.92578125 33.87390625 -32.92578125 36.25390625 C-24.01578125 36.25390625 -15.10578125 36.25390625 -5.92578125 36.25390625 C-3.58815101 31.57864576 -3.33025064 28.3754695 -3.92578125 23.25390625 C-5.53179242 19.56008056 -7.39546442 17.21519338 -10.92578125 15.25390625 C-16.64287114 13.71468974 -20.85134109 14.39537883 -25.92578125 17.25390625 Z " fill="#F9F9F9" transform="translate(261.92578125,352.74609375)"/>
<path d="M0 0 C7.47416832 6.31151991 11.44477561 14.2132727 12.60519409 23.82275391 C13.05570908 29.36926794 12.93235309 34.93922476 12.91015625 40.5 C12.9082878 41.85620064 12.90686592 43.21240196 12.90586853 44.56860352 C12.90207696 48.11295483 12.89227595 51.65726421 12.88116455 55.20159912 C12.87087762 58.82840406 12.86635541 62.45521588 12.86132812 66.08203125 C12.85065018 73.17970614 12.83308117 80.2773459 12.8125 87.375 C5.8825 87.375 -1.0475 87.375 -8.1875 87.375 C-9.2054498 84.32115059 -9.28935053 82.34383604 -9.25 79.15234375 C-9.24137939 78.07227051 -9.23275879 76.99219727 -9.22387695 75.87939453 C-9.21187256 74.70231934 -9.19986816 73.52524414 -9.1875 72.3125 C-9.14439053 61.62559221 -9.19993579 50.94458897 -9.44995117 40.26028442 C-9.48314352 38.76126533 -9.51119322 37.26212298 -9.53393555 35.76290894 C-9.56722589 33.6460501 -9.6191647 31.53040996 -9.67578125 29.4140625 C-9.70196533 28.19928223 -9.72814941 26.98450195 -9.75512695 25.73291016 C-10.36025348 21.03335606 -11.70969664 17.56545271 -15.4375 14.5625 C-21.76084117 11.83196631 -27.78104603 12.02413384 -34.1875 14.375 C-35.64300803 17.28601606 -35.3526099 19.86817198 -35.39282227 23.11962891 C-35.40767166 24.15882225 -35.40767166 24.15882225 -35.42282104 25.2190094 C-35.45445497 27.51315878 -35.47920086 29.80732889 -35.50390625 32.1015625 C-35.52447415 33.69054712 -35.54547058 35.27952624 -35.56687927 36.86849976 C-35.62211691 41.05403195 -35.67151869 45.23961366 -35.71972656 49.42523193 C-35.76992926 53.6949912 -35.82562174 57.96467842 -35.88085938 62.234375 C-35.98846165 70.61452412 -36.0893948 78.99473431 -36.1875 87.375 C-42.7875 87.375 -49.3875 87.375 -56.1875 87.375 C-57.31183952 77.49715211 -57.3160301 67.72590245 -57.28515625 57.80078125 C-57.28328756 56.0228835 -57.28186579 54.24498524 -57.28086853 52.46708679 C-57.27707881 47.82295267 -57.26727944 43.1788506 -57.25616455 38.534729 C-57.24587357 33.78162062 -57.24135455 29.02850698 -57.23632812 24.27539062 C-57.22565346 14.97524646 -57.20862043 5.67512591 -57.1875 -3.625 C-56.05094971 -3.68413574 -54.91439941 -3.74327148 -53.7434082 -3.80419922 C-52.22085596 -3.88751422 -50.69831419 -3.97102055 -49.17578125 -4.0546875 C-48.43042114 -4.09295654 -47.68506104 -4.13122559 -46.91711426 -4.1706543 C-42.00986572 -4.44512978 -37.2311522 -4.99055258 -32.375 -5.75 C-20.1012273 -7.46624788 -10.92889804 -5.57159508 0 0 Z M10.8125 34.375 C10.8125 37.675 10.8125 40.975 10.8125 44.375 C11.1425 44.375 11.4725 44.375 11.8125 44.375 C11.8125 41.075 11.8125 37.775 11.8125 34.375 C11.4825 34.375 11.1525 34.375 10.8125 34.375 Z " fill="#F6F7F7" transform="translate(187.1875,355.625)"/>
<path d="M0 0 C1.93522461 1.87885885 2.2558958 2.91186428 2.609375 5.5625 C1.21837124 8.12961342 -0.17994992 10.42398118 -1.828125 12.8125 C-2.26189453 13.4621875 -2.69566406 14.111875 -3.14257812 14.78125 C-4.21404428 16.38256205 -5.30088783 17.97356548 -6.390625 19.5625 C-9.21877277 18.19915522 -11.86813556 16.68613871 -14.515625 15 C-20.27390481 11.33860321 -24.536153 10.89647843 -31.390625 11.5625 C-38.1746397 13.62573753 -41.64477471 17.45876615 -45.078125 23.5625 C-48.86771755 32.22442582 -48.69902407 42.88285721 -45.515625 51.6875 C-44.8426872 53.32747434 -44.13727676 54.95474621 -43.390625 56.5625 C-42.88015625 57.67044922 -42.88015625 57.67044922 -42.359375 58.80078125 C-41.0387981 61.20231424 -39.9428819 61.55503017 -37.390625 62.5625 C-36.194375 63.119375 -34.998125 63.67625 -33.765625 64.25 C-28.2517647 66.26250767 -22.72485368 65.94239614 -17.3046875 63.69921875 C-14.28909296 62.05145718 -11.62183172 60.18744908 -9.390625 57.5625 C-6.09270411 58.55781847 -4.85985543 60.14695575 -3.25 63.0390625 C-2.53513378 64.41584188 -1.83234055 65.79894508 -1.140625 67.1875 C-0.77710938 67.89390625 -0.41359375 68.6003125 -0.0390625 69.328125 C0.85418117 71.06759952 1.73318498 72.81437331 2.609375 74.5625 C-6.27101699 82.75542852 -15.83208551 87.21224572 -28.19921875 86.8125 C-41.4445038 85.30145144 -52.44017912 79.74893741 -61.08203125 69.5703125 C-69.96364985 57.41651863 -70.75137461 43.08105589 -69.390625 28.5625 C-67.12270002 15.77038382 -60.78328158 6.23965599 -50.390625 -1.4375 C-34.1378799 -11.50602448 -15.85370772 -10.64628548 0 0 Z " fill="#F8F8F8" transform="translate(649.390625,357.4375)"/>
<path d="M0 0 C0.87454834 0.00523682 1.74909668 0.01047363 2.65014648 0.01586914 C3.59438477 0.0190918 4.53862305 0.02231445 5.51147461 0.02563477 C6.50469727 0.03401367 7.49791992 0.04239258 8.52124023 0.05102539 C9.51833008 0.05553711 10.51541992 0.06004883 11.54272461 0.06469727 C14.01478872 0.07652532 16.48673541 0.0930069 18.95874023 0.11352539 C18.98199674 10.35424726 18.99972281 20.59496277 19.01055241 30.83570576 C19.01575226 35.59181469 19.0227968 40.34790544 19.03417969 45.10400391 C19.04511215 49.70110946 19.05103885 54.29819761 19.05361748 58.89531517 C19.05545317 60.64181987 19.0590375 62.38832372 19.06447029 64.13482094 C19.09151697 73.1969457 18.98528552 82.09484553 17.95874023 91.11352539 C11.02874023 91.11352539 4.09874023 91.11352539 -3.04125977 91.11352539 C-3.06380966 79.39625408 -3.0821742 67.67899708 -3.09307194 55.96170902 C-3.09830105 50.52150227 -3.1053992 45.08131108 -3.11669922 39.64111328 C-3.12752711 34.39566837 -3.13353639 29.15023847 -3.13613701 23.90478325 C-3.13799144 21.89881593 -3.14161238 19.89284947 -3.14698982 17.8868885 C-3.15419895 15.08749715 -3.15525076 12.2881686 -3.15478516 9.48876953 C-3.15838043 8.65079834 -3.16197571 7.81282715 -3.16567993 6.94946289 C-3.15340535 0.17537776 -3.15340535 0.17537776 0 0 Z " fill="#F0F1F2" transform="translate(102.041259765625,351.886474609375)"/>
<path d="M0 0 C0 30.03 0 60.06 0 91 C-6.93 91 -13.86 91 -21 91 C-21 60.97 -21 30.94 -21 0 C-2 -1 -2 -1 0 0 Z " fill="#FDFDFD" transform="translate(573,352)"/>
<path d="M0 0 C1.65 0 3.3 0 5 0 C5.19335938 0.60328125 5.38671875 1.2065625 5.5859375 1.828125 C5.97652344 3.02695312 5.97652344 3.02695312 6.375 4.25 C6.63023437 5.03890625 6.88546875 5.8278125 7.1484375 6.640625 C8.60271497 10.98612768 8.60271497 10.98612768 11.67578125 14.21484375 C14.85443741 15.28864188 17.84169368 15.39954363 21.1875 15.5625 C27.90130152 15.90130152 27.90130152 15.90130152 29 17 C29.125 19.5 29.125 19.5 29 22 C27.25642513 23.74357487 24.74960772 23.29313799 22.375 23.4375 C20.24930575 23.61695813 18.12422904 23.80395863 16 24 C15.25878906 24.06316406 14.51757812 24.12632813 13.75390625 24.19140625 C11.6690261 24.45242446 11.6690261 24.45242446 9 26 C7.87870905 28.27708316 7.2018255 30.4407751 6.60546875 32.90625 C6 35 6 35 4 37 C2.0234375 36.93359375 2.0234375 36.93359375 0 36 C-1.2734375 33.78515625 -1.2734375 33.78515625 -2.375 31.0625 C-4.19387168 27.04763345 -4.19387168 27.04763345 -7.625 24.4375 C-11.61293679 23.92054523 -15.59394327 23.5631725 -19.609375 23.34375 C-22 23 -22 23 -24 21 C-23.46428571 17.46428571 -23.46428571 17.46428571 -22 16 C-20.10671507 15.8409994 -18.20991951 15.72302167 -16.3125 15.625 C-9.71023312 15.13267837 -9.71023312 15.13267837 -4 12 C-2.65725128 8.63384485 -2.65725128 8.63384485 -2 5 C-1.35800351 3.32367583 -0.70105843 1.65249487 0 0 Z " fill="#F2F3F4" transform="translate(175,23)"/>
<path d="M0 0 C3.69230769 0.69230769 3.69230769 0.69230769 5 2 C5.20551265 5.23339903 5.31955368 8.46501564 5.42578125 11.703125 C6.10498982 15.6027987 7.22159688 17.22159688 10 20 C12.08007484 21.39679606 12.08007484 21.39679606 14.25 22.3125 C14.95640625 22.63863281 15.6628125 22.96476562 16.390625 23.30078125 C17.18726563 23.64689453 17.18726563 23.64689453 18 24 C17.77734375 26.3359375 17.77734375 26.3359375 17 29 C15.00390625 30.4765625 15.00390625 30.4765625 12.5625 31.625 C9.1913534 33.23752277 8.14544352 33.78183472 6 37 C5.29187186 39.32108669 4.61975848 41.65377147 4 44 C1.6875 44 1.6875 44 -1 43 C-1.82421875 41.2578125 -1.82421875 41.2578125 -2.5 39.125 C-3.56418402 35.7183508 -3.56418402 35.7183508 -6.1875 33.3125 C-7.115625 32.879375 -8.04375 32.44625 -9 32 C-10.45006084 31.18872061 -11.88704001 30.35376491 -13.3125 29.5 C-14.00988281 29.0978125 -14.70726562 28.695625 -15.42578125 28.28125 C-15.94527344 27.8584375 -16.46476563 27.435625 -17 27 C-17 26.01 -17 25.02 -17 24 C-15.73542969 23.51080078 -15.73542969 23.51080078 -14.4453125 23.01171875 C-13.34960938 22.57472656 -12.25390625 22.13773438 -11.125 21.6875 C-10.03445312 21.25824219 -8.94390625 20.82898438 -7.8203125 20.38671875 C-4.75128691 19.17067625 -4.75128691 19.17067625 -3 16 C-2.56850833 13.44489249 -2.21537601 10.94595718 -1.9375 8.375 C-1.12185864 1.12185864 -1.12185864 1.12185864 0 0 Z " fill="#F1F2F2" transform="translate(149,109)"/>
<path d="M0 0 C3.14785047 1.88871028 5.44726876 4.13485545 7.4375 7.25 C8.27247009 11.33207602 8.13744492 14.98248622 7 19 C4.47736023 22.2044343 1.91891273 24.73211647 -2 26 C-7.03565533 26.45778685 -9.93937667 26.0454675 -14 23 C-16.79611056 20.60333381 -17.83789028 18.66474208 -18.203125 14.9140625 C-18.3008072 10.14391487 -18.36938896 6.68526917 -15 3 C-10.02595182 -0.50647991 -6.00645831 -1.89092206 0 0 Z " fill="#F5F6F6" transform="translate(568,317)"/>
<path d="M0 0 C3.8026029 2.0050088 5.61790841 3.42686262 8 7 C8.64817054 11.34615406 9.00465176 15.9666809 7.01953125 19.984375 C3.6444964 24.17980294 0.85570312 25.79381076 -4.375 26.375 C-9.47258427 25.8476637 -12.15061853 23.66444332 -15.875 20.3125 C-17.67967931 16.60288141 -17.51226381 13.04197198 -17 9 C-15.75778485 5.46949379 -14.66903706 3.59032682 -11.875 1.125 C-7.83414282 -0.45620498 -4.28200709 -0.69356453 0 0 Z " fill="#F7F7F7" transform="translate(115,317)"/>
<path d="M0 0 C1.32 0.66 2.64 1.32 4 2 C4 7.28 4 12.56 4 18 C6.97 18.66 9.94 19.32 13 20 C13.33 21.65 13.66 23.3 14 25 C10.19956554 26.73734147 8.40285423 27 4 27 C4 33.6 4 40.2 4 47 C1.525 47.495 1.525 47.495 -1 48 C-2.58403524 46.41596476 -2.21974935 44.7228362 -2.31640625 42.52734375 C-2.35830078 41.62822266 -2.40019531 40.72910156 -2.44335938 39.80273438 C-2.48267578 38.85720703 -2.52199219 37.91167969 -2.5625 36.9375 C-2.60568359 35.98810547 -2.64886719 35.03871094 -2.69335938 34.06054688 C-2.79979276 31.70718647 -2.90181008 29.35371646 -3 27 C-6.05175781 26.71008301 -6.05175781 26.71008301 -9.10351562 26.42016602 C-11 26 -11 26 -12.5 23.9375 C-12.665 23.298125 -12.83 22.65875 -13 22 C-9.42547265 19.65102489 -7.36568695 18.87313739 -3 18 C-2.67 12.39 -2.34 6.78 -2 1 C-1.34 0.67 -0.68 0.34 0 0 Z " fill="#F4F5F5" transform="translate(504,123)"/>
<path d="" fill="#3A4652" transform="translate(0,0)"/>
<path d="" fill="#FFFFFF" transform="translate(0,0)"/>
<path d="" fill="#FFFFFF" transform="translate(0,0)"/>
<path d="" fill="#404857" transform="translate(0,0)"/>
</svg>
