<?xml version="1.0" standalone="no"?>
<!DOCTYPE svg PUBLIC "-//W3C//DTD SVG 20010904//EN"
 "http://www.w3.org/TR/2001/REC-SVG-20010904/DTD/svg10.dtd">
<svg version="1.0" xmlns="http://www.w3.org/2000/svg"
 width="652.000000pt" height="484.000000pt" viewBox="0 0 652.000000 484.000000"
 preserveAspectRatio="xMidYMid meet">

<g transform="translate(0.000000,484.000000) scale(0.100000,-0.100000)"
fill="#000000" stroke="none">
<path d="M3080 4824 c-200 -32 -380 -92 -533 -178 -405 -227 -686 -656 -737
-1124 -57 -514 125 -966 513 -1276 32 -25 62 -46 67 -46 13 0 13 65 1 108 -6
18 -41 69 -80 112 -177 200 -293 440 -337 694 -22 123 -22 336 0 453 75 414
341 779 696 958 102 51 185 81 310 113 95 24 123 26 295 27 164 0 205 -3 295
-23 295 -67 546 -214 723 -427 28 -33 53 -59 57 -58 4 1 7 -3 7 -10 0 -7 22
-43 48 -82 92 -136 162 -307 202 -495 24 -115 24 -360 -1 -480 -55 -267 -165
-481 -352 -688 -67 -74 -68 -76 -72 -139 -3 -37 0 -63 5 -63 44 0 274 229 361
358 177 265 257 566 232 874 -21 261 -92 490 -210 683 -90 147 -271 361 -297
351 -8 -3 -12 -2 -9 3 7 11 -68 75 -154 130 -222 144 -501 227 -795 236 -96 3
-170 0 -235 -11z"/>
<path d="M1742 4578 c-6 -18 -12 -44 -14 -57 -5 -40 -49 -64 -129 -70 -52 -4
-75 -11 -82 -23 -18 -28 9 -48 67 -49 88 -1 117 -16 148 -79 17 -35 33 -55 44
-55 18 0 23 7 49 66 20 45 51 60 140 68 70 6 70 6 70 36 l0 30 -75 5 c-108 7
-121 18 -147 120 -7 27 -14 36 -35 38 -22 3 -28 -2 -36 -30z"/>
<path d="M3155 4529 c-469 -45 -842 -343 -1004 -803 -109 -308 -88 -633 60
-929 88 -177 211 -323 374 -443 219 -161 513 -255 753 -240 319 20 646 180
848 414 268 312 365 667 285 1053 -75 364 -333 691 -665 844 -96 45 -280 91
-415 105 -113 11 -107 11 -236 -1z m245 -154 c8 -5 23 -11 33 -12 51 -8 145
-76 177 -128 12 -20 27 -32 32 -29 6 4 8 2 4 -4 -3 -6 2 -30 11 -54 12 -29 18
-70 18 -128 0 -78 -3 -90 -34 -147 -41 -77 -113 -146 -189 -181 -51 -24 -68
-27 -167 -27 -104 0 -113 2 -170 32 -76 39 -142 105 -180 180 -27 52 -30 68
-30 148 0 79 4 97 29 149 48 98 128 165 241 203 44 14 201 13 225 -2z m-652
-670 c28 -9 58 -22 66 -30 8 -8 19 -15 25 -15 6 0 11 -4 11 -10 0 -5 6 -10 14
-10 20 0 90 -83 116 -136 45 -98 44 -210 -4 -309 -33 -66 -119 -148 -193 -183
-51 -24 -70 -27 -158 -27 -87 0 -107 4 -157 27 -105 49 -183 150 -207 269 -11
50 -12 193 -2 183 2 -2 14 19 27 46 13 28 28 50 34 50 5 0 10 6 10 14 0 30
116 114 190 137 44 13 174 10 228 -6z m1328 -2 c97 -33 172 -98 221 -193 25
-50 28 -65 28 -160 0 -94 -3 -111 -28 -161 -34 -70 -109 -142 -185 -177 -50
-24 -69 -27 -157 -27 -93 0 -105 2 -167 33 -86 42 -168 129 -198 209 -42 111
-21 247 54 346 37 48 121 107 186 130 61 21 184 21 246 0z m-698 -240 c47 -35
64 -67 64 -121 0 -60 -25 -102 -76 -126 -39 -19 -117 -21 -149 -5 -61 32 -95
99 -82 160 9 38 51 88 90 105 40 19 120 12 153 -13z m48 -441 c152 -57 254
-198 254 -350 0 -198 -146 -349 -355 -369 -156 -14 -321 76 -391 214 -25 51
-29 68 -29 148 0 77 4 98 27 148 15 31 32 57 37 57 6 0 11 6 11 13 0 13 80 97
93 97 4 0 20 9 35 20 69 50 217 61 318 22z"/>
<path d="M1486 3738 c-3 -7 -7 -41 -10 -76 -3 -35 -11 -73 -18 -85 -7 -12 -12
-24 -11 -27 1 -3 -6 -6 -15 -7 -9 -1 -39 -9 -65 -18 -62 -23 -59 -41 12 -77
71 -37 88 -52 98 -96 6 -27 15 -38 30 -40 17 -3 24 3 28 25 15 67 20 72 115
125 27 15 30 20 20 39 -7 12 -18 18 -26 15 -9 -3 -12 -1 -9 4 3 6 -1 10 -10
10 -10 0 -32 15 -51 34 -32 32 -34 39 -34 98 0 63 -11 88 -37 88 -8 0 -15 -6
-17 -12z"/>
<path d="M5033 3602 c-7 -5 -13 -40 -15 -92 l-3 -84 -42 -9 c-79 -15 -80 -61
-2 -73 46 -8 48 -13 51 -129 3 -78 4 -80 28 -80 25 0 25 1 28 103 2 91 5 102
21 102 38 0 81 22 81 41 0 20 -22 33 -72 43 -28 6 -28 7 -28 84 0 88 -14 115
-47 94z"/>
<path d="M410 1780 c-201 -37 -344 -169 -395 -367 -21 -79 -21 -603 -1 -679
60 -227 280 -366 530 -334 44 5 100 21 132 36 81 38 174 130 219 215 l37 71
-38 40 c-39 40 -101 80 -141 92 -19 6 -23 2 -28 -31 -19 -112 -56 -172 -128
-208 -89 -44 -202 -32 -283 30 -17 13 -35 21 -39 17 -3 -4 -5 -2 -4 3 2 6 -8
30 -21 55 -25 45 -25 48 -28 345 -3 332 0 360 54 431 18 23 29 45 26 49 -4 4
-2 5 3 4 6 -2 28 6 50 18 87 45 197 38 274 -17 45 -33 87 -111 97 -183 l7 -49
36 7 c42 8 108 44 135 74 15 16 17 29 12 65 -9 56 -57 152 -74 148 -8 -1 -11
2 -7 8 17 27 -100 111 -193 140 -71 22 -173 31 -232 20z"/>
<path d="M5574 1660 c-55 -28 -79 -72 -72 -135 4 -36 14 -55 37 -79 27 -27 38
-31 84 -31 67 0 112 30 128 86 34 110 -76 209 -177 159z"/>
<path d="M1038 1652 c-57 -35 -77 -135 -37 -186 36 -46 98 -67 143 -50 9 3 13
10 10 15 -3 5 1 6 9 3 8 -3 25 8 41 26 31 38 36 115 10 156 -35 52 -122 70
-176 36z"/>
<path d="M1570 1339 c-30 -4 -103 -11 -162 -15 l-108 -7 0 -371 c0 -204 3
-408 7 -453 l6 -83 98 0 99 0 0 353 c0 267 3 357 13 370 27 36 148 38 202 3
49 -32 52 -58 59 -393 3 -172 6 -317 6 -323 0 -6 41 -10 105 -10 l105 0 0 293
c0 318 -7 394 -40 460 -27 55 -78 110 -92 101 -6 -4 -8 -2 -5 3 15 24 -92 68
-183 76 -30 3 -80 1 -110 -4z m417 -476 c-2 -16 -4 -3 -4 27 0 30 2 43 4 28 2
-16 2 -40 0 -55z"/>
<path d="M3080 1335 c-36 -8 -100 -14 -142 -14 l-77 -1 -3 -437 c-2 -281 1
-443 7 -452 8 -11 7 -13 -4 -6 -10 5 -12 4 -7 -3 5 -8 43 -12 112 -12 l104 0
0 355 c0 342 1 356 20 375 30 30 109 28 138 -3 22 -23 22 -28 22 -375 l0 -352
105 0 105 0 0 344 0 344 26 31 c42 50 127 51 154 1 8 -15 11 -128 10 -371 l-1
-350 108 3 108 3 0 350 c0 319 -2 354 -19 399 -35 92 -110 153 -213 176 -51
12 -147 4 -137 -11 3 -5 -2 -6 -10 -3 -16 6 -86 -27 -105 -50 -12 -14 -17 -13
-47 14 -35 30 -119 61 -163 59 -14 -1 -55 -7 -91 -14z m-47 -912 c-7 -2 -19
-2 -25 0 -7 3 -2 5 12 5 14 0 19 -2 13 -5z"/>
<path d="M6135 1336 c-160 -40 -279 -156 -320 -311 -17 -67 -20 -218 -4 -284
39 -170 180 -301 357 -332 107 -19 237 16 320 86 l30 25 -25 45 c-14 26 -29
42 -35 39 -7 -4 -8 -2 -4 4 7 12 -17 66 -34 77 -6 4 -29 -10 -51 -29 -100 -85
-241 -64 -312 47 -72 110 -59 302 26 396 75 82 218 79 309 -7 15 -14 29 -24
31 -21 28 39 60 96 60 106 0 7 3 10 7 8 4 -2 13 7 21 21 13 25 12 28 -16 51
-97 79 -236 110 -360 79z"/>
<path d="M2328 1321 c-61 -24 -110 -60 -102 -73 4 -7 2 -8 -5 -4 -6 4 -18 2
-26 -4 -18 -15 -20 -34 -2 -24 8 5 8 3 -2 -9 -7 -9 -17 -14 -22 -12 -12 8 -55
-71 -73 -134 -24 -83 -22 -290 4 -373 32 -106 103 -189 204 -240 53 -28 74
-32 156 -36 123 -5 186 17 268 93 l57 53 -42 48 c-23 27 -47 48 -53 46 -6 -1
-9 2 -6 7 14 22 -16 20 -46 -2 -65 -49 -95 -58 -173 -56 -41 2 -72 6 -69 10 2
4 -7 14 -21 23 -29 19 -71 82 -81 120 l-6 26 186 0 186 0 39 35 c60 55 84 122
79 220 -7 127 -65 222 -170 276 -61 32 -213 37 -280 10z m202 -180 c47 -34 65
-108 38 -166 -11 -25 -11 -25 -145 -25 l-133 0 0 33 c0 36 39 125 63 146 50
41 128 46 177 12z"/>
<path d="M4115 1319 c-75 -26 -145 -69 -145 -89 0 -22 67 -160 78 -160 5 0 20
8 33 19 13 10 48 31 78 46 69 34 148 33 200 -5 36 -25 70 -89 71 -132 l0 -27
-61 32 c-54 28 -71 32 -138 31 -65 0 -85 -5 -131 -30 -211 -114 -192 -448 32
-566 34 -17 60 -22 119 -23 73 0 80 2 130 38 48 33 55 35 64 20 6 -9 20 -27
32 -40 20 -21 30 -23 133 -23 120 0 131 6 86 51 -49 50 -51 59 -57 339 -7 314
-13 340 -96 430 -75 81 -129 103 -263 107 -87 3 -115 0 -165 -18z m230 -477
c59 -29 75 -51 75 -106 -1 -57 -10 -74 -60 -105 -41 -25 -99 -27 -140 -6 -17
9 -33 15 -37 15 -4 0 -8 6 -8 13 -1 6 -7 26 -14 42 -17 40 -8 102 20 131 41
44 98 49 164 16z"/>
<path d="M5062 1330 c-124 -26 -245 -121 -301 -236 -64 -131 -65 -325 -3 -453
38 -78 117 -155 199 -194 62 -29 76 -32 166 -32 l97 0 -6 -45 c-21 -156 -202
-217 -364 -122 -25 15 -49 25 -53 24 -5 -1 -6 1 -3 6 8 14 -50 64 -70 60 -10
-1 -38 -36 -62 -76 l-45 -74 49 -49 c31 -32 80 -65 131 -91 76 -38 90 -41 180
-45 78 -4 110 -1 159 15 118 37 218 122 266 228 23 49 23 53 26 558 1 280 -1
513 -5 517 -12 12 -313 19 -361 9z m146 -452 l2 -276 -30 -7 c-47 -10 -133 20
-177 62 -21 20 -42 36 -46 35 -5 -2 -6 2 -3 7 3 5 -1 25 -9 45 -20 47 -20 190
0 247 38 107 122 173 215 167 l45 -3 3 -277z"/>
<path d="M5618 1322 l-98 -3 0 -454 0 -455 105 0 105 0 0 454 c0 250 -3 456
-7 458 -5 2 -52 2 -105 0z"/>
<path d="M997 1313 c-2 -5 -4 -209 -6 -455 l-2 -448 104 0 104 0 6 83 c4 45 7
250 7 455 l0 372 -104 0 c-58 0 -107 -3 -109 -7z"/>
</g>
</svg>
